<svg id="visual" viewBox="0 0 900 600" width="900" height="600" xmlns="http://www.w3.org/2000/svg" xmlns:xlink="http://www.w3.org/1999/xlink" version="1.1"><rect x="0" y="0" width="900" height="600" fill="#001220"></rect><defs><linearGradient id="grad1_0" x1="33.3%" y1="0%" x2="100%" y2="100%"><stop offset="20%" stop-color="#001220" stop-opacity="1"></stop><stop offset="80%" stop-color="#001220" stop-opacity="1"></stop></linearGradient></defs><defs><linearGradient id="grad2_0" x1="0%" y1="0%" x2="66.7%" y2="100%"><stop offset="20%" stop-color="#001220" stop-opacity="1"></stop><stop offset="80%" stop-color="#001220" stop-opacity="1"></stop></linearGradient></defs><g transform="translate(900, 0)"><path d="M0 486.7C-60.9 467.3 -121.8 447.9 -174.1 420.4C-226.5 392.8 -270.3 357.1 -318.9 318.9C-367.5 280.7 -420.9 239.9 -449.7 186.3C-478.5 132.7 -482.6 66.3 -486.7 0L0 0Z" fill="#6600FF"></path></g><g transform="translate(0, 600)"><path d="M0 -486.7C56.7 -453.9 113.5 -421.1 161.9 -390.8C210.3 -360.5 250.3 -332.8 301.9 -301.9C353.6 -271.1 417 -237.1 449.7 -186.3C482.4 -135.4 484.6 -67.7 486.7 0L0 0Z" fill="#6600FF"></path></g></svg>