<svg id="visual" viewBox="0 0 900 600" width="900" height="600" xmlns="http://www.w3.org/2000/svg" xmlns:xlink="http://www.w3.org/1999/xlink" version="1.1"><rect x="0" y="0" width="900" height="600" fill="#001220"></rect><path d="M0 367L21.5 380.7C43 394.3 86 421.7 128.8 423.3C171.7 425 214.3 401 257.2 393C300 385 343 393 385.8 401C428.7 409 471.3 417 514.2 418.2C557 419.3 600 413.7 642.8 404.8C685.7 396 728.3 384 771.2 379C814 374 857 376 878.5 377L900 378L900 601L878.5 601C857 601 814 601 771.2 601C728.3 601 685.7 601 642.8 601C600 601 557 601 514.2 601C471.3 601 428.7 601 385.8 601C343 601 300 601 257.2 601C214.3 601 171.7 601 128.8 601C86 601 43 601 21.5 601L0 601Z" fill="#715df2"></path><path d="M0 393L21.5 407.3C43 421.7 86 450.3 128.8 460.8C171.7 471.3 214.3 463.7 257.2 458.3C300 453 343 450 385.8 446.3C428.7 442.7 471.3 438.3 514.2 430.5C557 422.7 600 411.3 642.8 415C685.7 418.7 728.3 437.3 771.2 442C814 446.7 857 437.3 878.5 432.7L900 428L900 601L878.5 601C857 601 814 601 771.2 601C728.3 601 685.7 601 642.8 601C600 601 557 601 514.2 601C471.3 601 428.7 601 385.8 601C343 601 300 601 257.2 601C214.3 601 171.7 601 128.8 601C86 601 43 601 21.5 601L0 601Z" fill="#6c50f6"></path><path d="M0 458L21.5 460.8C43 463.7 86 469.3 128.8 475.5C171.7 481.7 214.3 488.3 257.2 494C300 499.7 343 504.3 385.8 498.3C428.7 492.3 471.3 475.7 514.2 465.5C557 455.3 600 451.7 642.8 452C685.7 452.3 728.3 456.7 771.2 456.5C814 456.3 857 451.7 878.5 449.3L900 447L900 601L878.5 601C857 601 814 601 771.2 601C728.3 601 685.7 601 642.8 601C600 601 557 601 514.2 601C471.3 601 428.7 601 385.8 601C343 601 300 601 257.2 601C214.3 601 171.7 601 128.8 601C86 601 43 601 21.5 601L0 601Z" fill="#6940fa"></path><path d="M0 497L21.5 503.2C43 509.3 86 521.7 128.8 527.3C171.7 533 214.3 532 257.2 530.5C300 529 343 527 385.8 519C428.7 511 471.3 497 514.2 497.3C557 497.7 600 512.3 642.8 516.2C685.7 520 728.3 513 771.2 514.2C814 515.3 857 524.7 878.5 529.3L900 534L900 601L878.5 601C857 601 814 601 771.2 601C728.3 601 685.7 601 642.8 601C600 601 557 601 514.2 601C471.3 601 428.7 601 385.8 601C343 601 300 601 257.2 601C214.3 601 171.7 601 128.8 601C86 601 43 601 21.5 601L0 601Z" fill="#672bfd"></path><path d="M0 531L21.5 536.8C43 542.7 86 554.3 128.8 554.2C171.7 554 214.3 542 257.2 540C300 538 343 546 385.8 550.2C428.7 554.3 471.3 554.7 514.2 554.8C557 555 600 555 642.8 555.3C685.7 555.7 728.3 556.3 771.2 558C814 559.7 857 562.3 878.5 563.7L900 565L900 601L878.5 601C857 601 814 601 771.2 601C728.3 601 685.7 601 642.8 601C600 601 557 601 514.2 601C471.3 601 428.7 601 385.8 601C343 601 300 601 257.2 601C214.3 601 171.7 601 128.8 601C86 601 43 601 21.5 601L0 601Z" fill="#6600ff"></path></svg>