<svg id="visual" viewBox="0 0 900 600" width="900" height="600" xmlns="http://www.w3.org/2000/svg" xmlns:xlink="http://www.w3.org/1999/xlink" version="1.1"><rect x="0" y="0" width="900" height="600" fill="#001220"></rect><path d="M0 352L21.5 365.2C43 378.3 86 404.7 128.8 405.5C171.7 406.3 214.3 381.7 257.2 374C300 366.3 343 375.7 385.8 387.3C428.7 399 471.3 413 514.2 412.5C557 412 600 397 642.8 392.8C685.7 388.7 728.3 395.3 771.2 397.8C814 400.3 857 398.7 878.5 397.8L900 397L900 601L878.5 601C857 601 814 601 771.2 601C728.3 601 685.7 601 642.8 601C600 601 557 601 514.2 601C471.3 601 428.7 601 385.8 601C343 601 300 601 257.2 601C214.3 601 171.7 601 128.8 601C86 601 43 601 21.5 601L0 601Z" fill="#6600ff"></path><path d="M0 414L21.5 419.5C43 425 86 436 128.8 440.8C171.7 445.7 214.3 444.3 257.2 446.3C300 448.3 343 453.7 385.8 451.5C428.7 449.3 471.3 439.7 514.2 432C557 424.3 600 418.7 642.8 422C685.7 425.3 728.3 437.7 771.2 437.5C814 437.3 857 424.7 878.5 418.3L900 412L900 601L878.5 601C857 601 814 601 771.2 601C728.3 601 685.7 601 642.8 601C600 601 557 601 514.2 601C471.3 601 428.7 601 385.8 601C343 601 300 601 257.2 601C214.3 601 171.7 601 128.8 601C86 601 43 601 21.5 601L0 601Z" fill="#6109e7"></path><path d="M0 469L21.5 468.7C43 468.3 86 467.7 128.8 462.5C171.7 457.3 214.3 447.7 257.2 453.2C300 458.7 343 479.3 385.8 483.5C428.7 487.7 471.3 475.3 514.2 466.8C557 458.3 600 453.7 642.8 451C685.7 448.3 728.3 447.7 771.2 457C814 466.3 857 485.7 878.5 495.3L900 505L900 601L878.5 601C857 601 814 601 771.2 601C728.3 601 685.7 601 642.8 601C600 601 557 601 514.2 601C471.3 601 428.7 601 385.8 601C343 601 300 601 257.2 601C214.3 601 171.7 601 128.8 601C86 601 43 601 21.5 601L0 601Z" fill="#5b10cf"></path><path d="M0 486L21.5 491.7C43 497.3 86 508.7 128.8 509.8C171.7 511 214.3 502 257.2 498.2C300 494.3 343 495.7 385.8 498.8C428.7 502 471.3 507 514.2 507.7C557 508.3 600 504.7 642.8 503.5C685.7 502.3 728.3 503.7 771.2 503.5C814 503.3 857 501.7 878.5 500.8L900 500L900 601L878.5 601C857 601 814 601 771.2 601C728.3 601 685.7 601 642.8 601C600 601 557 601 514.2 601C471.3 601 428.7 601 385.8 601C343 601 300 601 257.2 601C214.3 601 171.7 601 128.8 601C86 601 43 601 21.5 601L0 601Z" fill="#5514b8"></path><path d="M0 537L21.5 537.7C43 538.3 86 539.7 128.8 539.7C171.7 539.7 214.3 538.3 257.2 535.7C300 533 343 529 385.8 529.2C428.7 529.3 471.3 533.7 514.2 540C557 546.3 600 554.7 642.8 558.3C685.7 562 728.3 561 771.2 562.2C814 563.3 857 566.7 878.5 568.3L900 570L900 601L878.5 601C857 601 814 601 771.2 601C728.3 601 685.7 601 642.8 601C600 601 557 601 514.2 601C471.3 601 428.7 601 385.8 601C343 601 300 601 257.2 601C214.3 601 171.7 601 128.8 601C86 601 43 601 21.5 601L0 601Z" fill="#4f17a2"></path></svg>