<svg id="visual" viewBox="0 0 900 600" width="900" height="600" xmlns="http://www.w3.org/2000/svg" xmlns:xlink="http://www.w3.org/1999/xlink" version="1.1"><rect x="0" y="0" width="900" height="600" fill="#001220"></rect><defs><linearGradient id="grad1_0" x1="33.3%" y1="0%" x2="100%" y2="100%"><stop offset="20%" stop-color="#001220" stop-opacity="1"></stop><stop offset="80%" stop-color="#001220" stop-opacity="1"></stop></linearGradient></defs><defs><linearGradient id="grad2_0" x1="0%" y1="0%" x2="66.7%" y2="100%"><stop offset="20%" stop-color="#001220" stop-opacity="1"></stop><stop offset="80%" stop-color="#001220" stop-opacity="1"></stop></linearGradient></defs><g transform="translate(900, 0)"><path d="M0 486.7C-69.2 486.3 -138.4 485.8 -186.3 449.7C-234.1 413.6 -260.7 341.8 -289.2 289.2C-317.7 236.6 -348.3 203.1 -381.6 158C-414.8 113 -450.8 56.5 -486.7 0L0 0Z" fill="#315b9b"></path></g><g transform="translate(0, 600)"><path d="M0 -486.7C72.4 -486.7 144.8 -486.6 184.5 -445.3C224.1 -404.1 231.2 -321.7 277.2 -277.2C323.2 -232.7 408.3 -226.1 449.7 -186.3C491.1 -146.4 488.9 -73.2 486.7 0L0 0Z" fill="#315b9b"></path></g></svg>